<svg xmlns="http://www.w3.org/2000/svg" xmlns:xlink="http://www.w3.org/1999/xlink" width="143" zoomAndPan="magnify" viewBox="0 0 107.25 31.5" height="42" preserveAspectRatio="xMidYMid meet" version="1.0"><defs><g/><clipPath id="e2d81e09c9"><path d="M 2.101562 1.316406 L 30.15625 1.316406 L 30.15625 29.371094 L 2.101562 29.371094 Z M 2.101562 1.316406 " clip-rule="nonzero"/></clipPath><clipPath id="a6a4681096"><path d="M 4.242188 3.449219 L 27.867188 3.449219 L 27.867188 27.074219 L 4.242188 27.074219 Z M 4.242188 3.449219 " clip-rule="nonzero"/></clipPath><clipPath id="5746557216"><path d="M 5.867188 8.828125 L 26.539062 8.828125 L 26.539062 22 L 5.867188 22 Z M 5.867188 8.828125 " clip-rule="nonzero"/></clipPath></defs><g fill="#ffffff" fill-opacity="1"><g transform="translate(45.273789, 13.022349)"><g><path d="M 3.65625 -3.640625 L 2.6875 -2.59375 L 2.6875 0 L 0.8125 0 L 0.8125 -9.078125 L 2.6875 -9.078125 L 2.6875 -4.96875 L 3.5 -6.09375 L 5.8125 -9.078125 L 8.109375 -9.078125 L 4.890625 -5.046875 L 8.203125 0 L 5.984375 0 Z M 3.65625 -3.640625 "/></g></g></g><g fill="#ffffff" fill-opacity="1"><g transform="translate(54.904544, 13.022349)"><g><path d="M 6.265625 -3.9375 L 2.6875 -3.9375 L 2.6875 -1.5 L 6.890625 -1.5 L 6.890625 0 L 0.8125 0 L 0.8125 -9.078125 L 6.875 -9.078125 L 6.875 -7.5625 L 2.6875 -7.5625 L 2.6875 -5.390625 L 6.265625 -5.390625 Z M 6.265625 -3.9375 "/></g></g></g><g fill="#ffffff" fill-opacity="1"><g transform="translate(63.61328, 13.022349)"><g><path d="M 3.9375 -4.984375 L 5.828125 -9.078125 L 7.875 -9.078125 L 4.890625 -3.296875 L 4.890625 0 L 2.984375 0 L 2.984375 -3.296875 L 0.015625 -9.078125 L 2.0625 -9.078125 Z M 3.9375 -4.984375 "/></g></g></g><g fill="#ffffff" fill-opacity="1"><g transform="translate(73.03222, 13.022349)"><g><path d="M 3.65625 -3.640625 L 2.6875 -2.59375 L 2.6875 0 L 0.8125 0 L 0.8125 -9.078125 L 2.6875 -9.078125 L 2.6875 -4.96875 L 3.5 -6.09375 L 5.8125 -9.078125 L 8.109375 -9.078125 L 4.890625 -5.046875 L 8.203125 0 L 5.984375 0 Z M 3.65625 -3.640625 "/></g></g></g><g fill="#ffffff" fill-opacity="1"><g transform="translate(82.662975, 13.022349)"><g><path d="M 8.265625 -4.328125 C 8.265625 -3.429688 8.101562 -2.644531 7.78125 -1.96875 C 7.46875 -1.300781 7.015625 -0.785156 6.421875 -0.421875 C 5.835938 -0.0546875 5.164062 0.125 4.40625 0.125 C 3.65625 0.125 2.984375 -0.0507812 2.390625 -0.40625 C 1.804688 -0.769531 1.351562 -1.285156 1.03125 -1.953125 C 0.707031 -2.628906 0.539062 -3.40625 0.53125 -4.28125 L 0.53125 -4.734375 C 0.53125 -5.628906 0.691406 -6.414062 1.015625 -7.09375 C 1.335938 -7.769531 1.789062 -8.289062 2.375 -8.65625 C 2.96875 -9.019531 3.640625 -9.203125 4.390625 -9.203125 C 5.148438 -9.203125 5.820312 -9.019531 6.40625 -8.65625 C 7 -8.289062 7.457031 -7.769531 7.78125 -7.09375 C 8.101562 -6.414062 8.265625 -5.628906 8.265625 -4.734375 Z M 6.375 -4.75 C 6.375 -5.695312 6.203125 -6.414062 5.859375 -6.90625 C 5.515625 -7.40625 5.03125 -7.65625 4.40625 -7.65625 C 3.769531 -7.65625 3.28125 -7.410156 2.9375 -6.921875 C 2.601562 -6.429688 2.4375 -5.71875 2.4375 -4.78125 L 2.4375 -4.328125 C 2.4375 -3.398438 2.601562 -2.679688 2.9375 -2.171875 C 3.28125 -1.660156 3.769531 -1.40625 4.40625 -1.40625 C 5.039062 -1.40625 5.523438 -1.648438 5.859375 -2.140625 C 6.191406 -2.640625 6.363281 -3.359375 6.375 -4.296875 Z M 6.375 -4.75 "/></g></g></g><g fill="#ffffff" fill-opacity="1"><g transform="translate(32.926929, 25.603229)"><g><path d="M 7.640625 -7.5625 L 4.859375 -7.5625 L 4.859375 0 L 2.984375 0 L 2.984375 -7.5625 L 0.25 -7.5625 L 0.25 -9.078125 L 7.640625 -9.078125 Z M 7.640625 -7.5625 "/></g></g></g><g fill="#ffffff" fill-opacity="1"><g transform="translate(42.352103, 25.603229)"><g><path d="M 6.265625 -3.9375 L 2.6875 -3.9375 L 2.6875 -1.5 L 6.890625 -1.5 L 6.890625 0 L 0.8125 0 L 0.8125 -9.078125 L 6.875 -9.078125 L 6.875 -7.5625 L 2.6875 -7.5625 L 2.6875 -5.390625 L 6.265625 -5.390625 Z M 6.265625 -3.9375 "/></g></g></g><g fill="#ffffff" fill-opacity="1"><g transform="translate(51.060839, 25.603229)"><g><path d="M 4.171875 -3.328125 L 2.6875 -3.328125 L 2.6875 0 L 0.8125 0 L 0.8125 -9.078125 L 4.1875 -9.078125 C 5.257812 -9.078125 6.082031 -8.835938 6.65625 -8.359375 C 7.238281 -7.878906 7.53125 -7.203125 7.53125 -6.328125 C 7.53125 -5.710938 7.394531 -5.195312 7.125 -4.78125 C 6.863281 -4.363281 6.460938 -4.035156 5.921875 -3.796875 L 7.875 -0.09375 L 7.875 0 L 5.875 0 Z M 2.6875 -4.84375 L 4.1875 -4.84375 C 4.65625 -4.84375 5.019531 -4.957031 5.28125 -5.1875 C 5.539062 -5.425781 5.671875 -5.757812 5.671875 -6.1875 C 5.671875 -6.613281 5.546875 -6.945312 5.296875 -7.1875 C 5.054688 -7.4375 4.6875 -7.5625 4.1875 -7.5625 L 2.6875 -7.5625 Z M 2.6875 -4.84375 "/></g></g></g><g fill="#ffffff" fill-opacity="1"><g transform="translate(60.735208, 25.603229)"><g><path d="M 5.9375 -1.875 L 2.65625 -1.875 L 2.03125 0 L 0.046875 0 L 3.421875 -9.078125 L 5.15625 -9.078125 L 8.546875 0 L 6.5625 0 Z M 3.15625 -3.390625 L 5.421875 -3.390625 L 4.28125 -6.78125 Z M 3.15625 -3.390625 "/></g></g></g><g fill="#ffffff" fill-opacity="1"><g transform="translate(70.851892, 25.603229)"><g><path d="M 2.6875 -3.203125 L 2.6875 0 L 0.8125 0 L 0.8125 -9.078125 L 4.34375 -9.078125 C 5.03125 -9.078125 5.628906 -8.953125 6.140625 -8.703125 C 6.660156 -8.453125 7.0625 -8.097656 7.34375 -7.640625 C 7.625 -7.179688 7.765625 -6.660156 7.765625 -6.078125 C 7.765625 -5.179688 7.457031 -4.476562 6.84375 -3.96875 C 6.238281 -3.457031 5.394531 -3.203125 4.3125 -3.203125 Z M 2.6875 -4.71875 L 4.34375 -4.71875 C 4.84375 -4.71875 5.222656 -4.832031 5.484375 -5.0625 C 5.742188 -5.289062 5.875 -5.625 5.875 -6.0625 C 5.875 -6.5 5.742188 -6.851562 5.484375 -7.125 C 5.222656 -7.40625 4.859375 -7.550781 4.390625 -7.5625 L 2.6875 -7.5625 Z M 2.6875 -4.71875 "/></g></g></g><g fill="#ffffff" fill-opacity="1"><g transform="translate(80.613478, 25.603229)"><g><path d="M 2.796875 0 L 0.921875 0 L 0.921875 -9.078125 L 2.796875 -9.078125 Z M 2.796875 0 "/></g></g></g><g fill="#ffffff" fill-opacity="1"><g transform="translate(85.864652, 25.603229)"><g><path d="M 5.9375 -1.875 L 2.65625 -1.875 L 2.03125 0 L 0.046875 0 L 3.421875 -9.078125 L 5.15625 -9.078125 L 8.546875 0 L 6.5625 0 Z M 3.15625 -3.390625 L 5.421875 -3.390625 L 4.28125 -6.78125 Z M 3.15625 -3.390625 "/></g></g></g><g fill="#ffffff" fill-opacity="1"><g transform="translate(95.981335, 25.603229)"><g><path d="M 5.515625 -2.375 C 5.515625 -2.726562 5.390625 -3 5.140625 -3.1875 C 4.890625 -3.382812 4.441406 -3.585938 3.796875 -3.796875 C 3.148438 -4.003906 2.632812 -4.207031 2.25 -4.40625 C 1.21875 -4.96875 0.703125 -5.71875 0.703125 -6.65625 C 0.703125 -7.15625 0.84375 -7.59375 1.125 -7.96875 C 1.40625 -8.351562 1.800781 -8.65625 2.3125 -8.875 C 2.832031 -9.09375 3.414062 -9.203125 4.0625 -9.203125 C 4.707031 -9.203125 5.28125 -9.082031 5.78125 -8.84375 C 6.289062 -8.613281 6.6875 -8.285156 6.96875 -7.859375 C 7.25 -7.429688 7.390625 -6.941406 7.390625 -6.390625 L 5.515625 -6.390625 C 5.515625 -6.804688 5.382812 -7.128906 5.125 -7.359375 C 4.863281 -7.585938 4.5 -7.703125 4.03125 -7.703125 C 3.570312 -7.703125 3.210938 -7.601562 2.953125 -7.40625 C 2.703125 -7.21875 2.578125 -6.96875 2.578125 -6.65625 C 2.578125 -6.363281 2.722656 -6.113281 3.015625 -5.90625 C 3.316406 -5.707031 3.757812 -5.523438 4.34375 -5.359375 C 5.40625 -5.035156 6.175781 -4.632812 6.65625 -4.15625 C 7.144531 -3.6875 7.390625 -3.097656 7.390625 -2.390625 C 7.390625 -1.609375 7.09375 -0.992188 6.5 -0.546875 C 5.90625 -0.0976562 5.101562 0.125 4.09375 0.125 C 3.394531 0.125 2.757812 0 2.1875 -0.25 C 1.613281 -0.507812 1.175781 -0.859375 0.875 -1.296875 C 0.582031 -1.742188 0.4375 -2.265625 0.4375 -2.859375 L 2.3125 -2.859375 C 2.3125 -1.859375 2.90625 -1.359375 4.09375 -1.359375 C 4.539062 -1.359375 4.890625 -1.445312 5.140625 -1.625 C 5.390625 -1.800781 5.515625 -2.050781 5.515625 -2.375 Z M 5.515625 -2.375 "/></g></g></g><g clip-path="url(#e2d81e09c9)"><path fill="#ffffff" d="M 30.15625 15.34375 C 30.15625 16.265625 30.066406 17.175781 29.886719 18.082031 C 29.707031 18.984375 29.441406 19.859375 29.085938 20.710938 C 28.734375 21.5625 28.304688 22.371094 27.792969 23.136719 C 27.28125 23.902344 26.699219 24.609375 26.046875 25.261719 C 25.394531 25.914062 24.6875 26.496094 23.921875 27.007812 C 23.15625 27.519531 22.347656 27.949219 21.496094 28.304688 C 20.644531 28.65625 19.769531 28.921875 18.863281 29.101562 C 17.960938 29.28125 17.050781 29.371094 16.128906 29.371094 C 15.207031 29.371094 14.292969 29.28125 13.390625 29.101562 C 12.488281 28.921875 11.609375 28.65625 10.761719 28.304688 C 9.910156 27.949219 9.101562 27.519531 8.335938 27.007812 C 7.570312 26.496094 6.859375 25.914062 6.210938 25.261719 C 5.558594 24.609375 4.976562 23.902344 4.464844 23.136719 C 3.953125 22.371094 3.519531 21.5625 3.167969 20.710938 C 2.816406 19.859375 2.550781 18.984375 2.371094 18.082031 C 2.191406 17.175781 2.101562 16.265625 2.101562 15.34375 C 2.101562 14.421875 2.191406 13.511719 2.371094 12.605469 C 2.550781 11.703125 2.816406 10.828125 3.167969 9.976562 C 3.519531 9.125 3.953125 8.316406 4.464844 7.550781 C 4.976562 6.785156 5.558594 6.078125 6.210938 5.425781 C 6.859375 4.773438 7.570312 4.191406 8.335938 3.679688 C 9.101562 3.167969 9.910156 2.738281 10.761719 2.382812 C 11.609375 2.03125 12.488281 1.765625 13.390625 1.585938 C 14.292969 1.40625 15.207031 1.316406 16.128906 1.316406 C 17.050781 1.316406 17.960938 1.40625 18.863281 1.585938 C 19.769531 1.765625 20.644531 2.03125 21.496094 2.382812 C 22.347656 2.738281 23.15625 3.167969 23.921875 3.679688 C 24.6875 4.191406 25.394531 4.773438 26.046875 5.425781 C 26.699219 6.078125 27.28125 6.785156 27.792969 7.550781 C 28.304688 8.316406 28.734375 9.125 29.085938 9.976562 C 29.441406 10.828125 29.707031 11.703125 29.886719 12.605469 C 30.066406 13.511719 30.15625 14.421875 30.15625 15.34375 Z M 30.15625 15.34375 " fill-opacity="1" fill-rule="nonzero"/></g><g clip-path="url(#a6a4681096)"><path fill="#69d0b3" d="M 27.914062 15.285156 C 27.914062 16.0625 27.835938 16.832031 27.683594 17.59375 C 27.535156 18.355469 27.308594 19.097656 27.011719 19.816406 C 26.714844 20.535156 26.347656 21.214844 25.917969 21.863281 C 25.484375 22.507812 24.996094 23.105469 24.445312 23.65625 C 23.894531 24.203125 23.296875 24.695312 22.652344 25.125 C 22.007812 25.558594 21.324219 25.921875 20.605469 26.21875 C 19.886719 26.519531 19.148438 26.742188 18.386719 26.894531 C 17.625 27.046875 16.855469 27.121094 16.078125 27.121094 C 15.300781 27.121094 14.53125 27.046875 13.769531 26.894531 C 13.003906 26.742188 12.265625 26.519531 11.546875 26.21875 C 10.828125 25.921875 10.148438 25.558594 9.5 25.125 C 8.855469 24.695312 8.257812 24.203125 7.707031 23.65625 C 7.160156 23.105469 6.667969 22.507812 6.234375 21.863281 C 5.804688 21.214844 5.441406 20.535156 5.140625 19.816406 C 4.84375 19.097656 4.621094 18.355469 4.46875 17.59375 C 4.316406 16.832031 4.242188 16.0625 4.242188 15.285156 C 4.242188 14.507812 4.316406 13.738281 4.46875 12.976562 C 4.621094 12.214844 4.84375 11.476562 5.140625 10.757812 C 5.441406 10.039062 5.804688 9.355469 6.234375 8.710938 C 6.667969 8.066406 7.160156 7.464844 7.707031 6.917969 C 8.257812 6.367188 8.855469 5.878906 9.5 5.445312 C 10.148438 5.011719 10.828125 4.648438 11.546875 4.351562 C 12.265625 4.054688 13.003906 3.828125 13.769531 3.679688 C 14.53125 3.527344 15.300781 3.449219 16.078125 3.449219 C 16.855469 3.449219 17.625 3.527344 18.386719 3.679688 C 19.148438 3.828125 19.886719 4.054688 20.605469 4.351562 C 21.324219 4.648438 22.007812 5.011719 22.652344 5.445312 C 23.296875 5.878906 23.894531 6.367188 24.445312 6.917969 C 24.996094 7.464844 25.484375 8.066406 25.917969 8.710938 C 26.347656 9.355469 26.714844 10.039062 27.011719 10.757812 C 27.308594 11.476562 27.535156 12.214844 27.683594 12.976562 C 27.835938 13.738281 27.914062 14.507812 27.914062 15.285156 Z M 27.914062 15.285156 " fill-opacity="1" fill-rule="nonzero"/></g><g clip-path="url(#5746557216)"><path fill="#ffffff" d="M 18.742188 13.816406 C 18.742188 15.886719 17.707031 17.707031 16.121094 18.800781 C 14.542969 17.707031 13.503906 15.886719 13.503906 13.816406 C 13.503906 11.746094 14.539062 9.921875 16.121094 8.832031 C 17.707031 9.921875 18.742188 11.746094 18.742188 13.816406 Z M 6.292969 15.71875 C 6.144531 15.761719 6.003906 15.808594 5.867188 15.859375 C 5.910156 16.140625 5.964844 16.425781 6.050781 16.707031 C 6.996094 19.914062 10.359375 21.746094 13.566406 20.800781 C 13.871094 20.710938 14.167969 20.597656 14.449219 20.464844 C 14.417969 20.347656 14.390625 20.226562 14.351562 20.109375 C 13.339844 16.671875 9.730469 14.703125 6.292969 15.71875 Z M 26.285156 15.925781 C 26.242188 15.914062 26.199219 15.898438 26.15625 15.886719 C 22.75 14.765625 19.085938 16.621094 17.964844 20.027344 C 17.921875 20.15625 17.882812 20.289062 17.851562 20.417969 C 18.039062 20.503906 18.234375 20.578125 18.433594 20.640625 C 21.609375 21.683594 25.03125 19.953125 26.070312 16.777344 C 26.164062 16.496094 26.238281 16.210938 26.285156 15.925781 Z M 26.285156 15.925781 " fill-opacity="1" fill-rule="nonzero"/></g></svg>