<?xml version="1.0" encoding="UTF-8"?>
<!DOCTYPE svg PUBLIC "-//W3C//DTD SVG 1.1//EN" "http://www.w3.org/Graphics/SVG/1.1/DTD/svg11.dtd">
<svg xmlns="http://www.w3.org/2000/svg" version="1.1" width="1998px" height="509px" style="shape-rendering:geometricPrecision; text-rendering:geometricPrecision; image-rendering:optimizeQuality; fill-rule:evenodd; clip-rule:evenodd" xmlns:xlink="http://www.w3.org/1999/xlink">
<g><path style="opacity:0.978" fill="#fcfcfc" d="M 1006.5,-0.5 C 1019.17,-0.5 1031.83,-0.5 1044.5,-0.5C 1114.93,10.1005 1163.43,48.4338 1190,114.5C 1209.54,176.575 1199.54,233.241 1160,284.5C 1119.13,331.166 1067.63,351.666 1005.5,346C 983.269,343.423 962.269,336.923 942.5,326.5C 909.864,334.83 877.197,342.164 844.5,348.5C 854.699,319.236 864.699,289.902 874.5,260.5C 843.669,202.1 843.836,143.767 875,85.5C 905.197,36.1622 949.03,7.49558 1006.5,-0.5 Z M 1009.5,28.5 C 1074.71,25.1798 1123.55,51.5131 1156,107.5C 1175.14,148.578 1176.47,190.245 1160,232.5C 1129.98,292.795 1081.15,321.961 1013.5,320C 962.53,314.121 924.03,289.287 898,245.5C 869.819,188.813 874.152,134.813 911,83.5C 936.784,52.5516 969.617,34.2182 1009.5,28.5 Z"/></g>
<g><path style="opacity:0.98" fill="#fdfdfd" d="M 258.5,38.5 C 275.833,38.5 293.167,38.5 310.5,38.5C 310.333,123.501 310.5,208.501 311,293.5C 310.79,301.616 314.623,306.449 322.5,308C 326.486,308.499 330.486,308.666 334.5,308.5C 333.313,322.847 331.98,337.18 330.5,351.5C 320.161,351.666 309.828,351.5 299.5,351C 277.903,347.404 264.737,334.904 260,313.5C 258.512,221.869 258.012,130.203 258.5,38.5 Z"/></g>
<g><path style="opacity:0.991" fill="#fdfdfd" d="M 648.5,38.5 C 665.5,38.5 682.5,38.5 699.5,38.5C 699.333,100.501 699.5,162.501 700,224.5C 721.358,197.31 742.525,169.976 763.5,142.5C 783.167,141.167 802.833,141.167 822.5,142.5C 797.242,174.92 772.576,207.753 748.5,241C 772.957,276.294 797.624,311.461 822.5,346.5C 802.833,347.833 783.167,347.833 763.5,346.5C 742.139,316.972 720.973,287.306 700,257.5C 699.5,287.498 699.333,317.498 699.5,347.5C 682.5,347.5 665.5,347.5 648.5,347.5C 648.5,244.5 648.5,141.5 648.5,38.5 Z"/></g>
<g><path style="opacity:0.987" fill="#fdfdfd" d="M -0.5,224.5 C -0.5,210.5 -0.5,196.5 -0.5,182.5C 5.52557,127.324 33.5256,87.8243 83.5,64C 121.465,51.0688 159.798,50.0688 198.5,61C 207.508,63.3421 215.842,67.0088 223.5,72C 221.244,88.4686 219.244,104.969 217.5,121.5C 196.495,113.666 174.828,108.499 152.5,106C 101.574,102.383 70.7406,125.55 60,175.5C 55.2254,201.716 57.2254,227.383 66,252.5C 83.0837,289.804 112.25,305.971 153.5,301C 175.473,298.396 196.806,293.23 217.5,285.5C 219.697,302.59 221.364,319.59 222.5,336.5C 192.635,350.089 161.302,355.589 128.5,353C 71.8926,348.04 32.3926,319.54 10,267.5C 4.88995,253.421 1.38995,239.088 -0.5,224.5 Z"/></g>
<g><path style="opacity:0.986" fill="#fdfdfd" d="M 1351.5,53.5 C 1379.23,52.3411 1406.23,56.1744 1432.5,65C 1437.53,66.5065 1441.86,69.0065 1445.5,72.5C 1443.35,88.8203 1441.35,105.154 1439.5,121.5C 1418.49,113.665 1396.83,108.498 1374.5,106C 1323,102.339 1292.16,125.839 1282,176.5C 1277.07,203.18 1279.4,229.18 1289,254.5C 1306.51,290.514 1335.35,306.014 1375.5,301C 1397.54,298.656 1418.88,293.489 1439.5,285.5C 1441.88,302.721 1443.54,319.887 1444.5,337C 1404.36,354.011 1363.03,357.678 1320.5,348C 1268.88,331.278 1237.05,296.444 1225,243.5C 1216.46,202.198 1221.12,162.531 1239,124.5C 1264.01,81.2333 1301.51,57.5666 1351.5,53.5 Z"/></g>
<g><path style="opacity:0.974" fill="#fdfdfd" d="M 366.5,59.5 C 383.833,59.5 401.167,59.5 418.5,59.5C 418.5,76.8333 418.5,94.1667 418.5,111.5C 401.167,111.5 383.833,111.5 366.5,111.5C 366.5,94.1667 366.5,76.8333 366.5,59.5 Z"/></g>
<g><path style="opacity:0.984" fill="#fdfdfd" d="M 977.5,94.5 C 1000,94.4957 1016.84,104.162 1028,123.5C 1038.5,104.909 1054.5,95.2426 1076,94.5C 1112.58,97.1 1128.92,116.767 1125,153.5C 1123.35,167.943 1119.19,181.61 1112.5,194.5C 1103.85,195.665 1095.19,195.832 1086.5,195C 1083.65,183.607 1080.65,172.274 1077.5,161C 1074.34,161.176 1072.84,163.009 1073,166.5C 1070.53,181.361 1067.36,196.027 1063.5,210.5C 1058.73,199.957 1054.23,189.291 1050,178.5C 1048.83,175.497 1047.17,172.83 1045,170.5C 1043.62,171.551 1042.62,172.884 1042,174.5C 1040.05,181.021 1037.72,187.354 1035,193.5C 1030.69,177.596 1026.69,161.596 1023,145.5C 1021.95,144.483 1020.78,144.316 1019.5,145C 1013.62,168.024 1008.12,191.191 1003,214.5C 997.409,202.314 992.075,189.98 987,177.5C 986.084,174.041 984.084,173.041 981,174.5C 976.723,186.498 972.557,198.498 968.5,210.5C 963.156,210.666 957.823,210.499 952.5,210C 935.577,186.557 928.411,160.391 931,131.5C 934.168,113.331 944.668,101.831 962.5,97C 967.643,96.1617 972.643,95.3284 977.5,94.5 Z"/></g>
<g><path style="opacity:0.984" fill="#fdfdfd" d="M 537.5,138.5 C 559.049,136.66 580.049,139.16 600.5,146C 605.945,147.888 610.945,150.555 615.5,154C 613.975,168.559 611.975,183.059 609.5,197.5C 589.09,183.647 566.757,178.813 542.5,183C 527.85,187.649 517.683,197.149 512,211.5C 502.658,237.082 503.991,262.082 516,286.5C 528.999,305.065 546.832,312.232 569.5,308C 583.953,305.683 597.286,300.516 609.5,292.5C 611.975,306.941 613.975,321.441 615.5,336C 601.44,344.798 586.107,349.798 569.5,351C 508.864,357.129 470.698,330.963 455,272.5C 448.638,240.377 453.305,210.044 469,181.5C 485.254,156.626 508.088,142.293 537.5,138.5 Z"/></g>
<g><path style="opacity:0.984" fill="#fdfdfd" d="M 1541.5,138.5 C 1551.51,138.334 1561.51,138.5 1571.5,139C 1606.6,143.96 1626.43,164.127 1631,199.5C 1632.25,230.144 1632.92,260.811 1633,291.5C 1633.04,296.853 1634.54,301.686 1637.5,306C 1639.09,306.862 1640.75,307.529 1642.5,308C 1647.5,308.333 1652.5,308.667 1657.5,309C 1655.58,323.096 1653.91,337.263 1652.5,351.5C 1642.49,351.666 1632.49,351.5 1622.5,351C 1607.33,349.42 1595.66,342.254 1587.5,329.5C 1564.53,348.661 1538.2,355.494 1508.5,350C 1484.39,342.559 1470.23,326.393 1466,301.5C 1462.07,273.201 1472.24,251.701 1496.5,237C 1522.99,224.043 1550.99,216.71 1580.5,215C 1580.19,203.032 1575.19,193.699 1565.5,187C 1552.36,183.153 1539.03,182.486 1525.5,185C 1512.07,188.419 1499.07,192.919 1486.5,198.5C 1485.36,184.458 1484.2,170.458 1483,156.5C 1501.58,147.137 1521.08,141.137 1541.5,138.5 Z M 1572.5,251.5 C 1575.17,251.5 1577.83,251.5 1580.5,251.5C 1580.67,266.837 1580.5,282.17 1580,297.5C 1565.76,310.852 1549.26,314.685 1530.5,309C 1519.92,301.843 1516.42,292.01 1520,279.5C 1523.07,273.1 1527.57,267.933 1533.5,264C 1545.88,257.496 1558.88,253.33 1572.5,251.5 Z"/></g>
<g><path style="opacity:0.976" fill="#fdfdfd" d="M 1777.5,138.5 C 1785.83,138.5 1794.17,138.5 1802.5,138.5C 1799.4,154.498 1796.23,170.498 1793,186.5C 1783.58,187.32 1774.08,187.82 1764.5,188C 1752.9,190.608 1743.73,196.774 1737,206.5C 1736.5,253.499 1736.33,300.499 1736.5,347.5C 1719.17,347.5 1701.83,347.5 1684.5,347.5C 1684.5,278.833 1684.5,210.167 1684.5,141.5C 1701.17,141.5 1717.83,141.5 1734.5,141.5C 1734.04,148.345 1734.54,155.012 1736,161.5C 1747.5,149.503 1761.33,141.836 1777.5,138.5 Z"/></g>
<g><path style="opacity:0.986" fill="#fdfdfd" d="M 1997.5,212.5 C 1997.5,222.5 1997.5,232.5 1997.5,242.5C 1996.6,246.728 1995.6,251.061 1994.5,255.5C 1950.5,256.167 1906.5,256.833 1862.5,257.5C 1867.03,281.519 1880.7,297.686 1903.5,306C 1922.07,309.917 1940.41,308.917 1958.5,303C 1968.02,299.775 1977.35,296.275 1986.5,292.5C 1987.37,306.684 1988.37,320.85 1989.5,335C 1979.37,341.272 1968.37,345.605 1956.5,348C 1927.8,353.747 1899.47,352.414 1871.5,344C 1837.31,329.167 1816.81,303.334 1810,266.5C 1803.92,230.519 1811.92,198.185 1834,169.5C 1857.71,144.264 1886.88,134.098 1921.5,139C 1956.11,143.712 1979.95,162.212 1993,194.5C 1994.71,200.581 1996.21,206.581 1997.5,212.5 Z M 1899.5,181.5 C 1928.76,178.088 1944.42,191.088 1946.5,220.5C 1919.16,220.833 1891.83,220.5 1864.5,219.5C 1869.39,200.265 1881.05,187.599 1899.5,181.5 Z"/></g>
<g><path style="opacity:0.992" fill="#fdfdfd" d="M 366.5,141.5 C 383.833,141.5 401.167,141.5 418.5,141.5C 418.5,210.167 418.5,278.833 418.5,347.5C 401.167,347.5 383.833,347.5 366.5,347.5C 366.5,278.833 366.5,210.167 366.5,141.5 Z"/></g>
<g><path style="opacity:0.973" fill="#fcfcfc" d="M 1020.5,160.5 C 1024.77,175.255 1028.61,190.255 1032,205.5C 1033.08,207.394 1034.41,207.727 1036,206.5C 1039.39,198.319 1042.39,189.986 1045,181.5C 1051.3,195.259 1057.46,209.092 1063.5,223C 1066.38,223.795 1067.88,222.629 1068,219.5C 1070.37,205.291 1073.37,191.291 1077,177.5C 1078.37,184.636 1080.2,191.636 1082.5,198.5C 1091.47,199.141 1100.47,199.808 1109.5,200.5C 1089.85,229.983 1065.85,255.483 1037.5,277C 1034.4,278.966 1031.23,280.8 1028,282.5C 1012.49,273.146 998.322,261.979 985.5,249C 975.564,239.236 966.564,228.736 958.5,217.5C 962.459,216.673 966.459,216.173 970.5,216C 971,215.5 971.5,215 972,214.5C 975.813,204.054 979.813,193.721 984,183.5C 990,197.5 996,211.5 1002,225.5C 1003.05,226.517 1004.22,226.684 1005.5,226C 1010.82,204.256 1015.82,182.423 1020.5,160.5 Z"/></g>
<g><path style="opacity:0.931" fill="#fcfcfc" d="M 352.5,398.5 C 359.167,398.5 365.833,398.5 372.5,398.5C 372.658,404.376 371.658,410.043 369.5,415.5C 368.975,416.192 368.308,416.692 367.5,417C 361.916,417.806 356.416,417.639 351,416.5C 350.376,410.405 350.876,404.405 352.5,398.5 Z"/></g>
<g><path style="opacity:0.958" fill="#fcfcfc" d="M 243.5,399.5 C 252.448,398.839 261.114,400.005 269.5,403C 270.003,409.005 268.336,414.505 264.5,419.5C 243.549,412.725 229.383,419.725 222,440.5C 214.138,470.467 225.304,482.467 255.5,476.5C 256.82,480.751 257.82,485.084 258.5,489.5C 258.182,490.647 257.516,491.481 256.5,492C 207.784,500.946 189.951,481.446 203,433.5C 210.369,414.613 223.869,403.28 243.5,399.5 Z"/></g>
<g><path style="opacity:0.963" fill="#fcfcfc" d="M 427.5,398.5 C 431.95,398.421 436.283,399.088 440.5,400.5C 441.077,402.106 441.41,403.772 441.5,405.5C 437.989,428.22 434.156,450.887 430,473.5C 429.169,480.146 428.669,486.813 428.5,493.5C 422.833,493.5 417.167,493.5 411.5,493.5C 411.665,489.818 411.499,486.152 411,482.5C 401.865,494.99 390.365,497.824 376.5,491C 368.087,470.718 371.42,452.384 386.5,436C 396.08,428.196 407.08,424.696 419.5,425.5C 421.078,416.918 421.745,408.251 421.5,399.5C 423.735,399.795 425.735,399.461 427.5,398.5 Z M 412.5,440.5 C 413.708,441.234 415.041,441.567 416.5,441.5C 415.534,452.032 412.7,462.032 408,471.5C 405.833,473.667 403.667,475.833 401.5,478C 394.366,480.565 390.699,477.898 390.5,470C 391.08,460.243 394.747,451.91 401.5,445C 404.979,442.791 408.646,441.291 412.5,440.5 Z"/></g>
<g><path style="opacity:0.962" fill="#fcfcfc" d="M 639.5,398.5 C 643.842,398.739 648.176,399.073 652.5,399.5C 650.967,421.704 647.8,443.704 643,465.5C 641.342,474.764 640.509,484.097 640.5,493.5C 634.833,493.5 629.167,493.5 623.5,493.5C 622.955,490.187 622.455,486.854 622,483.5C 613.423,494.682 602.59,497.516 589.5,492C 586.769,489.374 584.936,486.207 584,482.5C 581.384,464.017 586.55,448.184 599.5,435C 608.837,427.5 619.504,424.333 631.5,425.5C 632.924,416.898 633.591,408.232 633.5,399.5C 635.735,399.795 637.735,399.461 639.5,398.5 Z M 624.5,440.5 C 625.708,441.234 627.041,441.567 628.5,441.5C 627.274,450.402 625.108,459.069 622,467.5C 619.186,473.485 614.686,477.485 608.5,479.5C 605.571,479.072 603.737,477.405 603,474.5C 601.704,462.386 605.538,452.219 614.5,444C 617.776,442.308 621.109,441.141 624.5,440.5 Z"/></g>
<g><path style="opacity:0.962" fill="#fcfcfc" d="M 804.5,398.5 C 808.842,398.739 813.176,399.073 817.5,399.5C 817.511,401.547 817.844,403.547 818.5,405.5C 815.324,425.882 811.824,446.216 808,466.5C 806.424,475.436 805.591,484.436 805.5,493.5C 799.833,493.5 794.167,493.5 788.5,493.5C 788.11,490.161 787.61,486.827 787,483.5C 778.423,494.682 767.59,497.516 754.5,492C 751.836,489.331 750.002,486.164 749,482.5C 746.384,464.017 751.55,448.184 764.5,435C 773.837,427.5 784.504,424.333 796.5,425.5C 798.006,416.907 798.673,408.241 798.5,399.5C 800.735,399.795 802.735,399.461 804.5,398.5 Z M 789.5,440.5 C 790.708,441.234 792.041,441.567 793.5,441.5C 792.561,451.255 790.061,460.588 786,469.5C 783.131,474.543 778.965,477.877 773.5,479.5C 770.129,478.96 768.295,476.96 768,473.5C 767.001,462.321 770.501,452.821 778.5,445C 781.86,442.463 785.527,440.963 789.5,440.5 Z"/></g>
<g><path style="opacity:0.965" fill="#fcfcfc" d="M 970.5,508.5 C 969.5,508.5 968.5,508.5 967.5,508.5C 959.724,503.774 951.724,499.274 943.5,495C 924.407,495.573 913.574,486.406 911,467.5C 908.886,446.102 914.719,427.269 928.5,411C 943.858,398.33 960.525,396.33 978.5,405C 986.793,413.2 990.793,423.2 990.5,435C 990.452,456.582 982.452,474.416 966.5,488.5C 970.5,490.833 974.5,493.167 978.5,495.5C 976.574,500.363 973.908,504.697 970.5,508.5 Z M 952.5,416.5 C 965.209,416.046 970.876,422.213 969.5,435C 969.406,446.876 966.573,458.043 961,468.5C 956.012,475.858 949.178,479.025 940.5,478C 936.359,476.526 933.526,473.693 932,469.5C 929.807,454.79 932.141,440.79 939,427.5C 942.336,422.269 946.836,418.602 952.5,416.5 Z"/></g>
<g><path style="opacity:0.958" fill="#fcfcfc" d="M 1269.5,400.5 C 1275.76,400.19 1281.92,400.524 1288,401.5C 1290.23,424.212 1292.56,446.879 1295,469.5C 1304.83,447.167 1314.67,424.833 1324.5,402.5C 1325.03,401.808 1325.69,401.308 1326.5,401C 1332.94,400.085 1339.28,400.419 1345.5,402C 1330.77,431.969 1316.43,462.136 1302.5,492.5C 1294.92,494.758 1287.25,495.091 1279.5,493.5C 1276,464.154 1272.33,434.821 1268.5,405.5C 1268.59,403.742 1268.92,402.076 1269.5,400.5 Z"/></g>
<g><path style="opacity:0.916" fill="#fafafa" d="M 1492.5,400.5 C 1498.95,400.084 1505.29,400.584 1511.5,402C 1514.83,407 1518.17,412 1521.5,417C 1516.01,418.614 1510.34,418.947 1504.5,418C 1502.62,415.749 1501.12,413.249 1500,410.5C 1498.19,413.28 1496.02,415.78 1493.5,418C 1487.83,418.667 1482.17,418.667 1476.5,418C 1476.17,417.667 1475.83,417.333 1475.5,417C 1481.14,411.19 1486.81,405.69 1492.5,400.5 Z"/></g>
<g><path style="opacity:0.963" fill="#fcfcfc" d="M 1587.5,400.5 C 1594.23,400.205 1600.89,400.538 1607.5,401.5C 1611.83,432.124 1615.83,462.791 1619.5,493.5C 1612.83,494.833 1606.17,494.833 1599.5,493.5C 1599.13,487.451 1598.47,481.451 1597.5,475.5C 1588.85,474.335 1580.19,474.168 1571.5,475C 1568.34,480.98 1565.68,487.147 1563.5,493.5C 1556.83,494.76 1550.16,494.76 1543.5,493.5C 1555.38,466.747 1567.54,440.08 1580,413.5C 1582.02,408.777 1584.52,404.443 1587.5,400.5 Z M 1592.5,425.5 C 1594.3,436.305 1595.64,447.305 1596.5,458.5C 1590.49,458.666 1584.49,458.499 1578.5,458C 1583.58,447.335 1588.25,436.502 1592.5,425.5 Z"/></g>
<g><path style="opacity:0.959" fill="#fcfcfc" d="M 477.5,425.5 C 487.3,424.973 496.966,425.806 506.5,428C 507.022,428.561 507.355,429.228 507.5,430C 502.876,450.951 499.876,472.117 498.5,493.5C 492.833,493.5 487.167,493.5 481.5,493.5C 480.955,490.187 480.455,486.854 480,483.5C 472.3,494.253 462.133,497.42 449.5,493C 443.546,488.088 440.879,481.755 441.5,474C 441.788,448.852 453.788,432.685 477.5,425.5 Z M 483.5,440.5 C 485.285,440.926 486.285,442.092 486.5,444C 485.673,456.497 481.34,467.497 473.5,477C 464.826,481.679 460.826,479.013 461.5,469C 461.771,453.609 469.104,444.109 483.5,440.5 Z"/></g>
<g><path style="opacity:0.959" fill="#fcfcfc" d="M 554.5,425.5 C 572.796,424.045 579.963,432.378 576,450.5C 573.498,464.846 570.998,479.18 568.5,493.5C 562.161,494.751 555.828,494.751 549.5,493.5C 551.896,478.292 554.563,463.125 557.5,448C 556.003,441.753 552.336,440.086 546.5,443C 542.896,445.708 540.396,449.208 539,453.5C 535.207,466.633 532.373,479.967 530.5,493.5C 524.161,494.751 517.828,494.751 511.5,493.5C 515.536,472.785 518.869,451.951 521.5,431C 521.355,429.774 521.022,428.607 520.5,427.5C 526.463,426.504 532.463,426.171 538.5,426.5C 538.335,429.85 538.502,433.183 539,436.5C 543.086,431.216 548.252,427.549 554.5,425.5 Z"/></g>
<g><path style="opacity:0.958" fill="#fcfcfc" d="M 683.5,425.5 C 711.388,423.907 722.221,436.907 716,464.5C 707.797,491.519 690.297,500.352 663.5,491C 659.266,487.361 656.432,482.861 655,477.5C 652.005,458.81 657.505,443.31 671.5,431C 675.481,428.838 679.481,427.005 683.5,425.5 Z M 685.5,440.5 C 694.269,439.6 698.603,443.6 698.5,452.5C 698.575,462.393 695.242,470.893 688.5,478C 682.299,482.074 677.466,480.908 674,474.5C 672.601,465.406 673.935,456.739 678,448.5C 680.028,445.308 682.528,442.641 685.5,440.5 Z"/></g>
<g><path style="opacity:0.958" fill="#fcfcfc" d="M 849.5,425.5 C 857.206,424.665 864.539,425.831 871.5,429C 877.167,434.319 879.001,440.819 877,448.5C 875.698,452.274 873.531,455.441 870.5,458C 860.329,464.057 849.329,467.724 837.5,469C 840.939,478.388 847.606,481.721 857.5,479C 861.011,478.33 864.344,477.163 867.5,475.5C 869.146,476.779 870.313,478.445 871,480.5C 871.667,483.833 871.667,487.167 871,490.5C 858.362,495.173 845.529,495.673 832.5,492C 825.773,488.935 821.606,483.769 820,476.5C 816.518,451.431 826.351,434.431 849.5,425.5 Z M 850.5,439.5 C 857.163,438.333 859.997,440.999 859,447.5C 853.19,452.77 846.356,455.27 838.5,455C 840.731,448.326 844.731,443.159 850.5,439.5 Z"/></g>
<g><path style="opacity:0.956" fill="#fbfbfb" d="M 1095.5,425.5 C 1102.7,424.945 1109.7,425.778 1116.5,428C 1124.81,435.229 1126.31,443.729 1121,453.5C 1111.49,462.789 1099.99,467.622 1086.5,468C 1085.57,468.388 1084.91,469.055 1084.5,470C 1085.38,474.553 1088.05,477.553 1092.5,479C 1099.9,480.191 1106.9,479.025 1113.5,475.5C 1114.48,475.977 1115.31,476.643 1116,477.5C 1117.82,481.747 1118.32,486.081 1117.5,490.5C 1105.77,494.721 1093.77,495.554 1081.5,493C 1072.46,490.085 1067.29,483.918 1066,474.5C 1063.64,450.505 1073.48,434.172 1095.5,425.5 Z M 1097.5,439.5 C 1103.99,438.632 1106.49,441.299 1105,447.5C 1099.36,453.183 1092.86,455.35 1085.5,454C 1087.53,447.384 1091.53,442.551 1097.5,439.5 Z"/></g>
<g><path style="opacity:0.96" fill="#fcfcfc" d="M 1169.5,425.5 C 1174.27,425.191 1178.93,425.691 1183.5,427C 1187.1,428.771 1189.44,431.604 1190.5,435.5C 1197.7,427.265 1206.7,424.099 1217.5,426C 1223.12,427.285 1226.29,430.785 1227,436.5C 1227.67,440.833 1227.67,445.167 1227,449.5C 1224.39,464.16 1221.89,478.826 1219.5,493.5C 1213.16,494.751 1206.83,494.751 1200.5,493.5C 1202.89,478.682 1205.22,463.849 1207.5,449C 1207.11,441.019 1203.44,439.353 1196.5,444C 1194.27,446.564 1192.44,449.397 1191,452.5C 1187.63,465.721 1184.8,479.055 1182.5,492.5C 1176.18,495.087 1169.85,495.087 1163.5,492.5C 1166.43,477.729 1169.1,462.896 1171.5,448C 1170.68,441.617 1167.34,439.95 1161.5,443C 1157.52,447.126 1154.68,451.959 1153,457.5C 1150.12,469.385 1147.96,481.385 1146.5,493.5C 1139.8,494.996 1133.13,494.83 1126.5,493C 1131.73,471.136 1135.06,448.969 1136.5,426.5C 1142.21,426.171 1147.87,426.505 1153.5,427.5C 1154.23,430.109 1154.73,432.776 1155,435.5C 1159.01,430.762 1163.85,427.429 1169.5,425.5 Z"/></g>
<g><path style="opacity:0.958" fill="#fcfcfc" d="M 1366.5,425.5 C 1394.39,423.907 1405.22,436.907 1399,464.5C 1390.81,491.512 1373.31,500.346 1346.5,491C 1342.27,487.361 1339.43,482.861 1338,477.5C 1335,458.81 1340.5,443.31 1354.5,431C 1358.48,428.838 1362.48,427.005 1366.5,425.5 Z M 1368.5,440.5 C 1377.27,439.6 1381.6,443.6 1381.5,452.5C 1381.57,462.393 1378.24,470.893 1371.5,478C 1365.3,482.074 1360.47,480.908 1357,474.5C 1355.6,465.406 1356.93,456.739 1361,448.5C 1363.03,445.308 1365.53,442.641 1368.5,440.5 Z"/></g>
<g><path style="opacity:0.957" fill="#fcfcfc" d="M 1435.5,425.5 C 1443.95,425.098 1452.28,425.765 1460.5,427.5C 1460.37,433.341 1458.71,438.674 1455.5,443.5C 1443.86,438.032 1434.69,440.699 1428,451.5C 1425.02,458.345 1424.35,465.345 1426,472.5C 1428.18,477.509 1432.02,479.842 1437.5,479.5C 1441.54,479.199 1445.37,478.199 1449,476.5C 1452.17,481.023 1453.17,486.023 1452,491.5C 1440.6,495.31 1429.1,495.477 1417.5,492C 1411.08,488.33 1407.25,482.83 1406,475.5C 1403.61,457.312 1409.45,442.478 1423.5,431C 1427.48,428.838 1431.48,427.005 1435.5,425.5 Z"/></g>
<g><path style="opacity:0.956" fill="#fcfcfc" d="M 1491.5,425.5 C 1498.69,424.945 1505.69,425.778 1512.5,428C 1519.19,433.272 1521.35,440.106 1519,448.5C 1515.72,456.438 1509.89,461.604 1501.5,464C 1495.29,465.869 1488.95,467.203 1482.5,468C 1480.14,469.865 1479.98,472.031 1482,474.5C 1486.88,479.204 1492.72,480.704 1499.5,479C 1503.01,478.33 1506.34,477.163 1509.5,475.5C 1510.48,475.977 1511.31,476.643 1512,477.5C 1513.61,481.811 1514.11,486.145 1513.5,490.5C 1500.66,495.158 1487.66,495.658 1474.5,492C 1467.81,488.458 1463.64,482.958 1462,475.5C 1459.51,459.301 1464.01,445.467 1475.5,434C 1480.48,430.344 1485.82,427.511 1491.5,425.5 Z M 1493.5,439.5 C 1499.99,438.632 1502.49,441.299 1501,447.5C 1495.19,452.77 1488.36,455.27 1480.5,455C 1482.97,448.05 1487.3,442.884 1493.5,439.5 Z"/></g>
<g><path style="opacity:0.959" fill="#fcfcfc" d="M 1669.5,425.5 C 1679.88,423.273 1687.05,426.94 1691,436.5C 1697.49,427.346 1706.32,423.846 1717.5,426C 1722.24,427.068 1725.4,429.901 1727,434.5C 1727.67,440.167 1727.67,445.833 1727,451.5C 1724.43,465.501 1721.93,479.501 1719.5,493.5C 1713.16,494.751 1706.83,494.751 1700.5,493.5C 1703.04,478.154 1705.7,462.821 1708.5,447.5C 1707.22,441.539 1703.88,440.039 1698.5,443C 1694.9,445.708 1692.4,449.208 1691,453.5C 1687.53,466.649 1685.03,479.983 1683.5,493.5C 1677.16,494.751 1670.83,494.751 1664.5,493.5C 1666.51,478.459 1668.84,463.459 1671.5,448.5C 1671.11,441.8 1667.78,439.967 1661.5,443C 1658.94,445.892 1656.78,449.059 1655,452.5C 1651.09,465.946 1648.26,479.612 1646.5,493.5C 1640.16,494.751 1633.83,494.751 1627.5,493.5C 1630.27,476.5 1633.1,459.5 1636,442.5C 1636.5,437.177 1636.67,431.844 1636.5,426.5C 1642.5,426.5 1648.5,426.5 1654.5,426.5C 1654.34,429.518 1654.5,432.518 1655,435.5C 1659.21,431.103 1664.04,427.769 1669.5,425.5 Z"/></g>
<g><path style="opacity:0.96" fill="#fcfcfc" d="M 1770.5,425.5 C 1780.26,425.137 1789.92,425.804 1799.5,427.5C 1797.22,443.852 1794.72,460.185 1792,476.5C 1791.5,482.157 1791.33,487.824 1791.5,493.5C 1785.82,493.666 1780.16,493.499 1774.5,493C 1773.71,489.924 1773.21,486.758 1773,483.5C 1765.8,493.124 1756.3,496.624 1744.5,494C 1739.16,491.993 1736,488.159 1735,482.5C 1732.38,464.017 1737.55,448.184 1750.5,435C 1756.62,430.44 1763.28,427.273 1770.5,425.5 Z M 1775.5,440.5 C 1776.71,441.234 1778.04,441.567 1779.5,441.5C 1778.56,451.255 1776.06,460.588 1772,469.5C 1769.13,474.543 1764.96,477.877 1759.5,479.5C 1756.13,478.96 1754.3,476.96 1754,473.5C 1752.96,461.754 1756.79,451.92 1765.5,444C 1768.78,442.308 1772.11,441.141 1775.5,440.5 Z"/></g>
<g><path style="opacity:0.958" fill="#fcfcfc" d="M 273.5,426.5 C 279.833,426.5 286.167,426.5 292.5,426.5C 290.114,441.318 287.78,456.151 285.5,471C 284.425,475.516 286.091,478.016 290.5,478.5C 296.234,477.933 300.068,474.933 302,469.5C 306.633,455.504 309.799,441.171 311.5,426.5C 317.833,426.5 324.167,426.5 330.5,426.5C 327.734,443.5 324.9,460.5 322,477.5C 321.501,482.823 321.334,488.156 321.5,493.5C 315.506,494.74 309.506,494.74 303.5,493.5C 303.665,490.482 303.498,487.482 303,484.5C 293.132,495.304 281.799,497.304 269,490.5C 265.719,484.21 264.719,477.543 266,470.5C 268.61,455.84 271.11,441.174 273.5,426.5 Z"/></g>
<g><path style="opacity:0.947" fill="#fcfcfc" d="M 340.5,426.5 C 349.5,426.5 358.5,426.5 367.5,426.5C 363.509,448.781 359.842,471.114 356.5,493.5C 350.161,494.751 343.828,494.751 337.5,493.5C 340.114,476.429 343.114,459.429 346.5,442.5C 343.914,441.52 341.247,441.187 338.5,441.5C 338.292,436.364 338.959,431.364 340.5,426.5 Z"/></g>
<g><path style="opacity:0.959" fill="#fcfcfc" d="M 1004.5,426.5 C 1010.87,426.17 1017.2,426.504 1023.5,427.5C 1020.02,443.381 1017.52,459.381 1016,475.5C 1019.03,478.864 1022.53,479.364 1026.5,477C 1029.27,474.617 1031.44,471.783 1033,468.5C 1037.02,455.041 1040.19,441.375 1042.5,427.5C 1048.8,426.504 1055.13,426.17 1061.5,426.5C 1056.61,448.605 1053.28,470.938 1051.5,493.5C 1045.83,494.833 1040.17,494.833 1034.5,493.5C 1034,490.513 1033.5,487.513 1033,484.5C 1024.42,494.574 1013.92,497.074 1001.5,492C 997.475,488.028 995.475,483.195 995.5,477.5C 998.176,460.443 1001.18,443.443 1004.5,426.5 Z"/></g>
</svg>
